<svg id="add_profile_user_people" data-name="add profile, user, people" xmlns="http://www.w3.org/2000/svg" xmlns:xlink="http://www.w3.org/1999/xlink" width="24.367" height="19.895" viewBox="0 0 24.367 19.895">
  <defs>
    <linearGradient id="linear-gradient" x1="1.594" y1="0.5" x2="-0.015" y2="0.5" gradientUnits="objectBoundingBox">
      <stop offset="0" stop-color="#afda1a"/>
      <stop offset="1" stop-color="#55a4cc"/>
    </linearGradient>
  </defs>
  <path id="verified_user_profile_people" data-name="verified user, profile, people" d="M17.647,20.292l5.864-5.375a1.108,1.108,0,0,1,1.5,1.633l-6.646,6.092a1.108,1.108,0,0,1-1.532-.033l-3.323-3.323a1.108,1.108,0,1,1,1.566-1.566ZM1,21.825a9.98,9.98,0,0,1,6.228-9.234,5.517,5.517,0,1,1,3.74,1.481,7.765,7.765,0,0,0-7.675,6.646h7.675a1.108,1.108,0,1,1,0,2.215H2.108A1.108,1.108,0,0,1,1,21.825ZM7.646,8.534a3.323,3.323,0,1,0,3.323-3.323A3.323,3.323,0,0,0,7.646,8.534Z" transform="translate(-1 -3.037)" fill="url(#linear-gradient)"/>
</svg>
