<svg id="cart" xmlns="http://www.w3.org/2000/svg" width="32.754" height="30.41" viewBox="0 0 32.754 30.41">
  <g id="Cart_Icon" data-name="Cart Icon" transform="translate(0 4)" opacity="0.5">
    <path id="Path_64" data-name="Path 64" d="M27.853,9.532a5.311,5.311,0,0,0-4.167-2H9.017L8.96,7.22A3.92,3.92,0,0,0,6.335,4.2L3.652,3.3a1.069,1.069,0,1,0-.685,2.026l2.683.9a1.764,1.764,0,0,1,1.184,1.37l1.7,9.346A6.776,6.776,0,0,0,15.2,22.5h6.35a6.751,6.751,0,0,0,6.621-5.308l.7-3.168A5.292,5.292,0,0,0,27.81,9.518ZM26.811,13.57l-.7,3.168a4.6,4.6,0,0,1-4.523,3.624h-6.35a4.636,4.636,0,0,1-4.566-3.81L9.417,9.66H23.686a3.206,3.206,0,0,1,3.125,3.91Z" transform="translate(-2.242 -3.242)" fill="#ababab"/>
    <path id="Path_65" data-name="Path 65" d="M10.461,17.25a3.211,3.211,0,1,0,3.211,3.211A3.215,3.215,0,0,0,10.461,17.25Zm0,4.281a1.07,1.07,0,1,1,1.07-1.07A1.078,1.078,0,0,1,10.461,21.531Z" transform="translate(-0.103 2.739)" fill="#ababab"/>
    <path id="Path_66" data-name="Path 66" d="M18.461,17.25a3.211,3.211,0,1,0,3.211,3.211A3.215,3.215,0,0,0,18.461,17.25Zm0,4.281a1.07,1.07,0,1,1,1.07-1.07A1.078,1.078,0,0,1,18.461,21.531Z" transform="translate(3.312 2.739)" fill="#ababab"/>
  </g>
  <g id="Cart_Items_Number" data-name="Cart Items Number" transform="translate(-280.246 -65)">
    <circle id="BG" cx="7.5" cy="7.5" r="7.5" transform="translate(298 66)" fill="#93c850"/>
    <text id="_3" data-name="3" transform="translate(309 78)" fill="#fff" font-size="12" font-family="Poppins-Medium, Poppins" font-weight="500"><tspan x="-7" y="0">3</tspan></text>
  </g>
</svg>
