<svg xmlns="http://www.w3.org/2000/svg" width="30.567" height="30.219" viewBox="0 0 30.567 30.219">
  <g id="message_icon" data-name="message icon" transform="translate(6.9 0.299)">
    <g id="message_icon-2" data-name="message icon" transform="translate(-6 2.702)">
      <path id="Path_48" data-name="Path 48" d="M24.077,1.026H4.589A3.55,3.55,0,0,0,2.055,2.109,3.74,3.74,0,0,0,1,4.71V17.342a3.743,3.743,0,0,0,1.055,2.6,3.554,3.554,0,0,0,2.535,1.081H7.153V26.29l6.008-5.141a.505.505,0,0,1,.329-.123H24.077a3.554,3.554,0,0,0,2.535-1.081,3.743,3.743,0,0,0,1.055-2.6V4.71a3.74,3.74,0,0,0-1.055-2.6,3.55,3.55,0,0,0-2.535-1.082Z" transform="translate(-1 -1.026)" fill="none" stroke="#ababab" stroke-width="1.8" opacity="0.5"/>
      <path id="Path_49" data-name="Path 49" d="M6.9,11.158a2.106,2.106,0,1,0-2.052-2.1A2.079,2.079,0,0,0,6.9,11.158Z" transform="translate(0.282 0.947)" fill="#ababab" opacity="0.5"/>
      <path id="Path_50" data-name="Path 50" d="M11.513,11.158a2.106,2.106,0,1,0-2.051-2.1A2.078,2.078,0,0,0,11.513,11.158Z" transform="translate(1.821 0.947)" fill="#ababab" opacity="0.5"/>
      <path id="Path_51" data-name="Path 51" d="M16.128,11.158a2.106,2.106,0,1,0-2.051-2.1A2.079,2.079,0,0,0,16.128,11.158Z" transform="translate(3.359 0.947)" fill="#ababab" opacity="0.5"/>
    </g>
    <circle id="Ellipse_1_copy" data-name="Ellipse 1 copy" cx="4" cy="4" r="4" transform="translate(15.667 -0.299)" fill="#93c850"/>
  </g>
</svg>
