<svg xmlns="http://www.w3.org/2000/svg" xmlns:xlink="http://www.w3.org/1999/xlink" width="14.498" height="14.498" viewBox="0 0 14.498 14.498">
  <defs>
    <linearGradient id="linear-gradient" x1="1.594" y1="0.5" x2="-0.015" y2="0.5" gradientUnits="objectBoundingBox">
      <stop offset="0" stop-color="#afda1a"/>
      <stop offset="1" stop-color="#55a4cc"/>
    </linearGradient>
  </defs>
  <g id="Photo_Icon" data-name="Photo Icon" transform="translate(0 0)">
    <g id="r" transform="translate(0 0)" opacity="0.68">
      <g id="Group_1040" data-name="Group 1040">
        <path id="Union_23" data-name="Union 23" d="M-6476.308-2039.5a4.281,4.281,0,0,1-4.274-4.276v-5.948a4.279,4.279,0,0,1,4.274-4.274h5.948a4.279,4.279,0,0,1,4.275,4.274v5.948a4.281,4.281,0,0,1-4.275,4.276Zm1.9-6.52,2.811,2.342a1.809,1.809,0,0,0,1.16.423,1.8,1.8,0,0,0,1.287-.535l.676-.677a.559.559,0,0,0,0-.787.558.558,0,0,0-.787,0l-.676.677a.7.7,0,0,1-.945.044l-2.81-2.342a1.81,1.81,0,0,0-2.253-.059l-2.178,1.635a.559.559,0,0,0-.112.781.558.558,0,0,0,.781.112l2.178-1.636a.7.7,0,0,1,.42-.139A.7.7,0,0,1-6474.411-2046.022Zm2.007-3.331a1.675,1.675,0,0,0,1.673,1.672,1.675,1.675,0,0,0,1.674-1.672,1.676,1.676,0,0,0-1.674-1.674A1.676,1.676,0,0,0-6472.4-2049.353Zm1.116,0a.559.559,0,0,1,.558-.558.559.559,0,0,1,.558.558.559.559,0,0,1-.558.558A.559.559,0,0,1-6471.288-2049.353Z" transform="translate(6480.582 2054)" fill="url(#linear-gradient)"/>
      </g>
    </g>
  </g>
</svg>
